# xmcd CD database file
#
# Track frame offsets:
#	150
#	24322
#	39760
#	57130
#	65617
#	77087
#	88750
#	101400
#	113747
#	129992
#	146715
#	177184
#	190152
#	203645
#	221115
#	233275
#
# Disc length: 3290 seconds
#
# Revision: 3
# Processed by: cddbd v1.5.2PL0 Copyright (c) Steve Scherf et al.
# Submitted via: CDex 1.97
#
DISCID=cd0cd810
DTITLE=Various Artist - Newport Folk Festival Best of the Blues 1959-68 CD2 County Blues
DYEAR=2001
DGENRE=Blues
TTITLE0=Robert Pete Williams - Levee Camp Blues
TTITLE1=Robert Pete Williams - Midnight Boogie
TTITLE2=Robert Pete Williams - On My Way From Texas
TTITLE3=Mance Lipscomb - Freddie
TTITLE4=Mance Lipscomb - So Different Blues
TTITLE5=Mance Lipscomb - God Moves On The Water
TTITLE6=Jesse Fuller - San Francisco Bay Blues
TTITLE7=Jesse Fuller - I Double Double Do Love You
TTITLE8=Reverend Gary Davis - Samson and Delilah
TTITLE9=Reverend Gary Davis - I Won't Be Back No More
TTITLE10=Brownie McGhee and Sonny Terry - The Train is Leaving
TTITLE11=Brownie McGhee and Sonny Terry - Drink Muddy Water
TTITLE12=Brownie McGhee and Sonny Terry - Long Gone
TTITLE13=Brownie McGhee and Sonny Terry - Key To The Highway
TTITLE14=Brownie McGhee and Sonny Terry - My Baby Done Changed
TTITLE15=Sleepy John Estes - Clean Up At Home
EXTD=\n YEAR: 2001
EXTT0=
EXTT1=
EXTT2=
EXTT3=
EXTT4=
EXTT5=
EXTT6=
EXTT7=
EXTT8=
EXTT9=
EXTT10=
EXTT11=
EXTT12=
EXTT13=
EXTT14=
EXTT15=
PLAYORDER=
